<svg width="250" height="130" viewBox="0 0 250 130" fill="none" xmlns="http://www.w3.org/2000/svg">
<g clip-path="url(#clip0_515_937)">
<path d="M76.7109 116.77C76.7109 109.986 98.0552 104.416 124.363 104.416C150.671 104.416 172.016 109.986 172.016 116.825C172.007 117.599 171.756 118.351 171.299 118.976C167.328 124.767 147.803 129.18 124.363 129.18C98.0552 129.18 76.7109 123.609 76.7109 116.77Z" fill="#6FA3FF"/>
<path d="M67.2164 108.332H21.3289C20.1529 108.334 19.0101 108.722 18.0749 109.435L0.425868 123.278C0.243001 123.418 0.108408 123.612 0.0408512 123.832C-0.0267058 124.052 -0.0238602 124.288 0.0489913 124.507C0.121843 124.725 0.26107 124.916 0.447264 125.051C0.633459 125.187 0.857342 125.261 1.08771 125.264H49.5674C50.7971 125.252 51.9778 124.779 52.8766 123.94L67.7128 109.6C67.8209 109.5 67.8963 109.37 67.9293 109.227C67.9622 109.083 67.9512 108.933 67.8976 108.796C67.844 108.659 67.7503 108.542 67.6288 108.459C67.5072 108.376 67.3635 108.332 67.2164 108.332Z" fill="#6FA3FF"/>
<path d="M249.287 108.332H203.345C202.169 108.334 201.026 108.722 200.091 109.435L182.441 123.278C182.259 123.418 182.124 123.612 182.056 123.832C181.989 124.052 181.992 124.288 182.065 124.507C182.137 124.725 182.277 124.916 182.463 125.051C182.649 125.187 182.873 125.261 183.103 125.264H231.583C232.813 125.252 233.993 124.779 234.892 123.94L249.728 109.6C249.846 109.51 249.933 109.384 249.975 109.242C250.018 109.099 250.014 108.947 249.965 108.807C249.917 108.666 249.825 108.545 249.703 108.46C249.581 108.374 249.436 108.33 249.287 108.332Z" fill="#6FA3FF"/>
<path d="M76.7109 114.509C76.7109 107.725 98.0552 102.155 124.363 102.155C150.671 102.155 172.016 107.725 172.016 114.564C172.007 115.338 171.756 116.09 171.299 116.715C167.328 122.506 147.803 126.918 124.363 126.918C98.0552 126.918 76.7109 121.348 76.7109 114.509Z" fill="#407BFF"/>
<path d="M171.299 116.715C167.328 122.506 147.859 126.918 124.363 126.918C98.0552 126.918 76.7109 121.348 76.7109 114.509C76.7109 114.509 84.9839 124.492 122.709 124.492C155.139 124.547 168.21 118.425 171.299 116.715Z" fill="#1841D3"/>
<path d="M151.499 111.641C149.679 109.655 138.207 108.111 124.363 108.111C109.913 108.111 98.1104 109.766 97.0625 111.862C97.5589 110.648 100.868 106.457 124.363 106.457C145.983 106.457 150.561 110.207 151.499 111.641Z" fill="#1841D3"/>
<path d="M67.602 108.332L57.9502 39.2799C57.8969 38.9243 57.7168 38.6 57.4431 38.3668C57.1694 38.1336 56.8206 38.0074 56.461 38.0114H43.4449C43.2304 38.0126 43.0187 38.0595 42.8237 38.149C42.6288 38.2384 42.4551 38.3683 42.3143 38.53C42.1734 38.6917 42.0686 38.8816 42.0068 39.087C41.945 39.2923 41.9276 39.5085 41.9557 39.7211L45.2098 65.8086C45.2413 66.0509 45.2206 66.2972 45.1489 66.5308C45.0772 66.7644 44.9563 66.9799 44.7942 67.1629C44.6322 67.3458 44.4329 67.4919 44.2096 67.5912C43.9864 67.6906 43.7444 67.741 43.5 67.7389H28.6087C28.1585 67.7418 27.7244 67.5718 27.396 67.2639C27.0676 66.956 26.8699 66.5337 26.8438 66.0843L25.6304 39.5005C25.6116 39.1167 25.447 38.7546 25.1703 38.4881C24.8935 38.2216 24.5254 38.0708 24.1413 38.0665H11.9524C11.751 38.0625 11.551 38.1001 11.3648 38.177C11.1786 38.2539 11.0104 38.3684 10.8706 38.5134C10.7307 38.6584 10.6224 38.8307 10.5523 39.0196C10.4822 39.2084 10.4519 39.4097 10.4633 39.6108L12.1179 85.057C12.1513 85.7528 12.4501 86.4093 12.9528 86.8915C13.4555 87.3736 14.1238 87.6448 14.8204 87.6492H47.9674L50.5597 108.442H67.602V108.332Z" fill="#00229C"/>
<path d="M249.664 108.332L240.012 39.2798C239.959 38.9242 239.779 38.5999 239.505 38.3667C239.231 38.1336 238.883 38.0073 238.523 38.0113H225.507C225.292 38.0125 225.081 38.0594 224.886 38.1489C224.691 38.2383 224.517 38.3682 224.376 38.5299C224.235 38.6916 224.131 38.8815 224.069 39.0869C224.007 39.2922 223.99 39.5084 224.018 39.721L227.272 65.8085C227.303 66.0508 227.283 66.2971 227.211 66.5307C227.139 66.7643 227.018 66.9798 226.856 67.1628C226.694 67.3457 226.495 67.4918 226.272 67.5912C226.048 67.6905 225.806 67.7409 225.562 67.7388H210.671C210.221 67.7417 209.786 67.5717 209.458 67.2638C209.13 66.9559 208.932 66.5337 208.906 66.0842L207.692 39.5004C207.674 39.1166 207.509 38.7545 207.232 38.488C206.956 38.2215 206.587 38.0707 206.203 38.0664H194.07C193.868 38.0624 193.668 38.1 193.482 38.1769C193.296 38.2538 193.128 38.3683 192.988 38.5133C192.848 38.6583 192.74 38.8306 192.669 39.0195C192.599 39.2083 192.569 39.4096 192.58 39.6107L194.235 85.057C194.268 85.7527 194.567 86.4092 195.07 86.8914C195.573 87.3735 196.241 87.6447 196.938 87.6492H230.085L232.677 108.442H249.664V108.332Z" fill="#00229C"/>
<path d="M57.5724 39.9968L50.2922 122.506C50.2313 123.255 49.8915 123.954 49.34 124.465C48.7885 124.975 48.0655 125.26 47.3139 125.264H36.3936C35.9688 125.264 35.5489 125.173 35.1616 124.999C34.7743 124.825 34.4285 124.57 34.1469 124.252C33.8654 123.934 33.6546 123.56 33.5285 123.154C33.4024 122.749 33.3638 122.321 33.4153 121.899L37.993 83.2369L5.28717 83.7884C4.86465 83.7956 4.44577 83.7092 4.06059 83.5353C3.67542 83.3615 3.33349 83.1046 3.05935 82.783C2.7852 82.4614 2.58563 82.0831 2.47495 81.6753C2.36428 81.2674 2.34524 80.8402 2.4192 80.4241L2.52951 79.7071L10.0303 39.5004C10.1315 38.9594 10.4182 38.4705 10.841 38.1182C11.2639 37.7658 11.7964 37.572 12.3468 37.57H22.7707C23.1121 37.5757 23.4483 37.6546 23.7566 37.8014C24.0648 37.9482 24.338 38.1594 24.5576 38.4208C24.7772 38.6823 24.9381 38.9878 25.0295 39.3168C25.1208 39.6457 25.1405 39.9905 25.0872 40.3277L20.6198 65.6982C20.5775 65.9376 20.5888 66.1835 20.6529 66.418C20.7171 66.6526 20.8324 66.87 20.9906 67.0546C21.1489 67.2392 21.3461 67.3864 21.5681 67.4857C21.79 67.5849 22.0313 67.6337 22.2744 67.6285H37.8827L41.5228 39.4453C41.5993 38.913 41.8638 38.4257 42.2684 38.0716C42.6731 37.7175 43.1912 37.52 43.729 37.5149H55.3663C55.6742 37.5327 55.9756 37.611 56.2532 37.7455C56.5308 37.8799 56.7792 38.0677 56.9841 38.2983C57.189 38.5288 57.3465 38.7975 57.4474 39.0889C57.5484 39.3804 57.5908 39.6889 57.5724 39.9968Z" fill="#407BFF"/>
<path d="M38.2141 79.7071L37.9383 83.2369L5.23248 83.7884C4.80996 83.7956 4.39108 83.7091 4.00591 83.5353C3.62073 83.3615 3.2788 83.1045 3.00466 82.7829C2.73051 82.4613 2.53094 82.0831 2.42027 81.6752C2.30959 81.2674 2.29055 80.8401 2.36452 80.4241L2.47482 79.7071H38.2141Z" fill="#1841D3"/>
<path d="M57.5772 39.9967L50.2969 122.506C50.236 123.255 49.8962 123.954 49.3447 124.465C48.7933 124.975 48.0702 125.26 47.3187 125.264H45.6641L54.3231 37.57H55.371C55.6776 37.5772 55.9795 37.6466 56.2585 37.7739C56.5374 37.9013 56.7876 38.0839 56.9939 38.3108C57.2002 38.5377 57.3582 38.8042 57.4585 39.0939C57.5587 39.3837 57.5991 39.6909 57.5772 39.9967Z" fill="#1841D3"/>
<path d="M20.5712 65.7533C20.5289 65.9928 20.5402 66.2386 20.6044 66.4732C20.6685 66.7077 20.7838 66.9251 20.9421 67.1097C21.1003 67.2943 21.2975 67.4416 21.5195 67.5408C21.7415 67.6401 21.9827 67.6889 22.2258 67.6837H19.0269C18.751 67.6855 18.4779 67.6268 18.2271 67.5118C17.9762 67.3968 17.7536 67.2282 17.5748 67.0179C17.3961 66.8077 17.2656 66.5608 17.1925 66.2947C17.1194 66.0285 17.1055 65.7496 17.1517 65.4776L22.0604 37.6252H22.7773C23.1187 37.6309 23.4549 37.7098 23.7632 37.8565C24.0714 38.0033 24.3446 38.2145 24.5642 38.476C24.7838 38.7374 24.9447 39.0429 25.0361 39.3719C25.1274 39.7009 25.1471 40.0456 25.0938 40.3828L20.5712 65.7533Z" fill="#1841D3"/>
<path d="M239.58 39.9968L232.3 122.506C232.239 123.255 231.899 123.954 231.348 124.465C230.796 124.975 230.073 125.26 229.322 125.264H218.401C217.977 125.264 217.557 125.174 217.169 124.999C216.782 124.825 216.436 124.57 216.155 124.252C215.873 123.934 215.662 123.56 215.536 123.154C215.41 122.749 215.372 122.321 215.423 121.899L220.001 83.2369L187.295 83.7885C186.872 83.7956 186.454 83.7092 186.068 83.5354C185.683 83.3615 185.341 83.1046 185.067 82.783C184.793 82.4614 184.593 82.0831 184.483 81.6753C184.372 81.2675 184.353 80.8402 184.427 80.4241L184.537 79.7071L192.038 39.5004C192.139 38.9594 192.426 38.4706 192.849 38.1182C193.272 37.7658 193.804 37.572 194.355 37.5701H204.779C205.12 37.5758 205.456 37.6546 205.764 37.8014C206.073 37.9482 206.346 38.1594 206.565 38.4209C206.785 38.6823 206.946 38.9878 207.037 39.3168C207.129 39.6458 207.148 39.9905 207.095 40.3277L202.628 65.6982C202.585 65.9377 202.597 66.1835 202.661 66.4181C202.725 66.6526 202.84 66.87 202.998 67.0546C203.157 67.2392 203.354 67.3865 203.576 67.4857C203.798 67.585 204.039 67.6337 204.282 67.6286H219.891L223.531 39.4453C223.607 38.913 223.872 38.4257 224.276 38.0716C224.681 37.7175 225.199 37.52 225.737 37.5149H237.374C237.685 37.523 237.991 37.5948 238.274 37.726C238.556 37.8572 238.808 38.0449 239.015 38.2776C239.222 38.5102 239.379 38.7829 239.476 39.0786C239.573 39.3743 239.609 39.6868 239.58 39.9968Z" fill="#407BFF"/>
<path d="M220.277 79.7071L220.001 83.2369L187.295 83.7885C186.872 83.7956 186.454 83.7092 186.068 83.5354C185.683 83.3615 185.341 83.1046 185.067 82.783C184.793 82.4614 184.593 82.0831 184.483 81.6753C184.372 81.2675 184.353 80.8402 184.427 80.4241L184.537 79.7071H220.277Z" fill="#1841D3"/>
<path d="M239.577 39.9969L232.297 122.506C232.236 123.255 231.896 123.954 231.345 124.465C230.793 124.975 230.07 125.261 229.319 125.264H227.664L236.323 37.5701H237.371C237.681 37.5676 237.987 37.6305 238.271 37.7545C238.554 37.8786 238.809 38.0611 239.017 38.2902C239.225 38.5192 239.382 38.7896 239.479 39.0837C239.576 39.3778 239.609 39.689 239.577 39.9969Z" fill="#1841D3"/>
<path d="M202.626 65.7533C202.584 65.9928 202.595 66.2386 202.659 66.4732C202.723 66.7077 202.839 66.9251 202.997 67.1098C203.155 67.2944 203.352 67.4416 203.574 67.5408C203.796 67.6401 204.037 67.6889 204.28 67.6837H201.082C200.806 67.6855 200.533 67.6269 200.282 67.5118C200.031 67.3968 199.808 67.2282 199.63 67.018C199.451 66.8077 199.32 66.5608 199.247 66.2947C199.174 66.0286 199.16 65.7497 199.206 65.4776L204.115 37.6252H204.832C205.173 37.6309 205.51 37.7098 205.818 37.8566C206.126 38.0033 206.399 38.2146 206.619 38.476C206.838 38.7374 206.999 39.043 207.091 39.3719C207.182 39.7009 207.202 40.0456 207.148 40.3829L202.626 65.7533Z" fill="#1841D3"/>
<path opacity="0.28" d="M102.572 56.8168L91.266 114.176C90.6593 117.265 92.6448 120.188 95.3473 120.188H155.244C157.891 120.188 159.877 117.375 159.38 114.397L150.114 57.0374C149.728 54.721 148.019 53.0664 145.978 53.0664H106.709C104.723 53.0113 103.014 54.6107 102.572 56.8168Z" fill="#407BFF"/>
<path d="M153.645 60.4035L159.105 78.5489C159.126 78.6406 159.168 78.7264 159.226 78.8002C159.284 78.8741 159.358 78.9342 159.443 78.9763C159.527 79.0184 159.619 79.0414 159.713 79.0438C159.807 79.0462 159.901 79.0279 159.987 78.9901C160.136 78.9324 160.258 78.8213 160.329 78.6786C160.401 78.5358 160.416 78.3717 160.373 78.218L156.788 59.6314C156.732 59.3969 156.625 59.1775 156.476 58.9881C156.326 58.7986 156.138 58.6436 155.923 58.5337C155.709 58.4237 155.473 58.3614 155.232 58.3509C154.991 58.3405 154.75 58.3822 154.527 58.4732C154.172 58.6342 153.887 58.9183 153.724 59.2731C153.562 59.6279 153.534 60.0294 153.645 60.4035Z" fill="#FEC272"/>
<path d="M143.331 66.9662L146.86 80.9751C146.873 81.034 146.898 81.0897 146.933 81.1386C146.968 81.1876 147.013 81.2289 147.065 81.2599C147.116 81.2909 147.174 81.311 147.233 81.3189C147.293 81.3268 147.354 81.3225 147.412 81.306C147.463 81.2924 147.511 81.2686 147.553 81.236C147.595 81.2034 147.63 81.1628 147.655 81.1164C147.681 81.0701 147.697 81.0191 147.703 80.9663C147.708 80.9136 147.703 80.8603 147.688 80.8096L145.426 66.525C145.399 66.3639 145.335 66.2111 145.241 66.0778C145.146 65.9445 145.023 65.8341 144.88 65.7547C144.737 65.6753 144.578 65.629 144.415 65.6191C144.252 65.6093 144.089 65.6361 143.937 65.6977C143.71 65.812 143.527 65.9986 143.417 66.2282C143.307 66.4578 143.277 66.7174 143.331 66.9662Z" fill="#FEC272"/>
<path d="M97.3321 62.1684L92.7544 76.1222C92.7379 76.1837 92.708 76.2409 92.6668 76.2895C92.6257 76.3381 92.5742 76.377 92.5162 76.4034C92.4582 76.4298 92.395 76.443 92.3313 76.442C92.2676 76.4411 92.2049 76.426 92.1477 76.3979C92.0447 76.3525 91.9607 76.2726 91.9104 76.1719C91.86 76.0712 91.8464 75.9561 91.8719 75.8464L95.1811 61.5617C95.2233 61.4041 95.2984 61.2572 95.4016 61.1307C95.5047 61.0042 95.6335 60.9011 95.7795 60.8281C95.9255 60.7551 96.0853 60.714 96.2483 60.7073C96.4114 60.7007 96.574 60.7287 96.7254 60.7896C96.9785 60.9045 97.1802 61.1087 97.2922 61.3631C97.4041 61.6175 97.4183 61.9042 97.3321 62.1684Z" fill="#FEC272"/>
<path d="M106.434 66.4698L100.477 92.3918C100.465 92.4507 100.44 92.5063 100.405 92.5553C100.37 92.6043 100.325 92.6455 100.273 92.6765C100.221 92.7075 100.164 92.7276 100.104 92.7356C100.045 92.7435 99.9838 92.7391 99.9258 92.7227C99.8746 92.7091 99.8266 92.6853 99.7848 92.6527C99.743 92.6201 99.7082 92.5794 99.6824 92.5331C99.6567 92.4868 99.6406 92.4357 99.635 92.383C99.6294 92.3303 99.6345 92.277 99.65 92.2263L104.338 66.0285C104.366 65.8675 104.429 65.7146 104.524 65.5813C104.618 65.448 104.742 65.3376 104.885 65.2583C105.027 65.1789 105.186 65.1326 105.349 65.1227C105.513 65.1128 105.676 65.1397 105.827 65.2012C106.074 65.2914 106.276 65.4747 106.389 65.7118C106.503 65.9489 106.519 66.221 106.434 66.4698Z" fill="#FEC272"/>
<path d="M119.057 69.5016L116.189 88.3088C116.181 88.3703 116.159 88.4292 116.126 88.4811C116.092 88.533 116.046 88.5766 115.993 88.6085C115.94 88.6403 115.881 88.6597 115.819 88.6651C115.757 88.6706 115.695 88.6619 115.637 88.6397C115.534 88.6061 115.446 88.5388 115.386 88.4488C115.326 88.3588 115.298 88.2512 115.306 88.1434L116.85 69.1706C116.875 69.0122 116.933 68.8609 117.021 68.7273C117.11 68.5937 117.226 68.481 117.363 68.397C117.499 68.313 117.653 68.2598 117.812 68.241C117.971 68.2222 118.132 68.2383 118.284 68.2882C118.415 68.317 118.538 68.3713 118.648 68.448C118.757 68.5246 118.85 68.622 118.922 68.7347C118.994 68.8474 119.043 68.9732 119.066 69.1048C119.089 69.2363 119.086 69.3712 119.057 69.5016Z" fill="#FEC272"/>
<path d="M133.847 69.1177L134.564 98.9556C134.563 99.018 134.549 99.0796 134.523 99.1363C134.497 99.1931 134.46 99.2438 134.413 99.2853C134.366 99.3268 134.312 99.3581 134.252 99.3773C134.193 99.3965 134.13 99.4032 134.068 99.3968C133.963 99.3782 133.867 99.3243 133.797 99.2441C133.727 99.1639 133.686 99.0621 133.682 98.9556L131.641 69.1177C131.637 68.957 131.668 68.7974 131.732 68.6502C131.797 68.503 131.893 68.372 132.015 68.2665C132.136 68.1611 132.279 68.0838 132.434 68.0402C132.589 67.9967 132.751 67.9879 132.91 68.0146C133.167 68.0661 133.4 68.203 133.57 68.4032C133.74 68.6034 133.838 68.8551 133.847 69.1177Z" fill="#FEC272"/>
<path d="M76.5458 42.0375C75.9904 41.3866 75.5265 40.663 75.167 39.8865L73.8984 31.3929L76.8216 34.0955L76.5458 42.0375Z" fill="#1841D3"/>
<path d="M158.841 44.9056C157.293 47.8448 155.344 50.5548 153.05 52.9579C148.086 58.2527 139.703 64.2644 127.238 64.2644C118.469 64.2644 111.961 61.3412 107.328 57.8114C102.967 54.513 99.4828 50.1952 97.1797 45.2365L158.841 44.9056Z" fill="#1841D3"/>
<path d="M158.841 44.9056C157.293 47.8448 155.344 50.5548 153.05 52.9579C147.891 54.8894 142.523 56.2038 137.055 56.8738C124.26 58.5836 114.277 58.4733 107.328 57.8114C102.967 54.513 99.4828 50.1952 97.1797 45.2365L158.841 44.9056Z" fill="#072359"/>
<path d="M178.252 31.0621C177.956 33.6847 177.477 36.2833 176.818 38.8387C176.631 39.5432 176.333 40.2134 175.935 40.8243C174.777 42.6995 172.571 44.7401 168.986 46.6705C168.379 47.0014 167.662 47.3323 166.945 47.6633C166.394 47.939 165.842 48.1596 165.235 48.4354C164.408 48.7663 163.581 49.0972 162.698 49.4282C159.093 50.656 155.408 51.6327 151.668 52.3513C151.337 52.4064 151.061 52.4616 150.73 52.5167C149.903 52.6822 148.91 52.7925 147.862 52.9028C143.45 53.3992 137.604 53.7301 131.371 53.8404C130.213 53.8404 129.055 53.8956 127.897 53.8956C121.995 53.9507 116.039 53.7853 110.854 53.5095C109.751 53.4544 108.648 53.3992 107.655 53.2889C105.102 53.1267 102.561 52.8136 100.044 52.3513C97.2315 51.7998 94.6945 51.1931 92.4332 50.5312C91.4956 50.2555 90.6131 49.9797 89.7307 49.7039C82.8917 47.4426 78.7552 44.685 76.6042 42.1479C76.2937 41.8076 76.0167 41.4382 75.7769 41.0449C75.5505 40.7197 75.3653 40.3677 75.2254 39.997C75.0481 39.6481 74.9183 39.2772 74.8393 38.8939C74.3688 37.0061 74.0187 35.0902 73.7914 33.158C73.5708 31.3379 73.5156 30.1245 73.5156 30.1245L125.911 34.0404L178.307 31.1173L178.252 31.0621Z" fill="#6FA3FF"/>
<path d="M178.197 30.9518C178.102 31.5169 177.832 32.0377 177.425 32.441C176.046 34.0404 172.737 36.412 167.112 38.563C166.395 38.8387 165.622 39.1145 164.795 39.3903C164.409 39.5006 164.023 39.666 163.637 39.7764C162.81 40.0521 161.927 40.3279 160.99 40.5485C157.385 41.5587 153.719 42.3325 150.014 42.8649C149.021 43.0304 147.973 43.1959 146.87 43.3062C141.692 43.9621 136.481 44.3303 131.262 44.4092C130.159 44.4092 129.001 44.4644 127.842 44.4644H127.787C121.886 44.4644 116.426 44.1886 111.517 43.7474C110.414 43.6371 109.311 43.5268 108.263 43.4165C103.437 42.8851 98.6476 42.0562 93.9232 40.9346C92.9856 40.714 92.048 40.4382 91.1656 40.2176C82.9478 37.9563 77.5427 35.1435 75.0608 32.827C74.6269 32.4302 74.2384 31.9862 73.9026 31.5034C73.6022 31.1042 73.4292 30.6236 73.4062 30.1245C73.4062 26.2087 88.8491 17.8805 128.063 17.8805C167.277 17.8254 178.197 28.2493 178.197 30.9518Z" fill="#1841D3"/>
<path d="M105.454 22.348L76.7747 34.0956C75.6803 33.3339 74.6966 32.4245 73.8516 31.3931L104.517 21.8516L105.454 22.348Z" fill="#072359"/>
<path d="M178.201 31.007C178.09 31.5507 177.822 32.0496 177.428 32.441L147.977 22.3479L148.914 21.9067L178.201 31.007Z" fill="#072359"/>
<path d="M110.302 25.3814L93.9217 40.8794C92.9841 40.6588 92.0465 40.3831 91.1641 40.1624L109.309 25.3262L110.302 25.3814Z" fill="#072359"/>
<path d="M119.296 27.2015L111.52 43.7474C110.417 43.6371 109.314 43.5268 108.266 43.4165L118.304 27.1463L119.296 27.2015Z" fill="#072359"/>
<path d="M150.067 42.9201C149.075 43.0855 147.972 43.251 146.924 43.3613L139.312 27.2014L140.36 27.1463L150.067 42.9201Z" fill="#072359"/>
<path d="M131.264 44.4644C130.161 44.4644 129.002 44.5196 127.844 44.5196H127.789L129.113 28.2494L130.161 28.1942L131.264 44.4644Z" fill="#072359"/>
<path d="M167.062 38.563C166.345 38.8388 165.573 39.1145 164.745 39.3903L144.945 25.3814L145.993 25.3262L167.062 38.563Z" fill="#072359"/>
<path d="M131.318 53.7301C130.16 53.7301 129.002 53.7853 127.844 53.7853V44.4644L131.263 44.4092L131.318 53.7301Z" fill="#1841D3"/>
<path d="M150.618 52.4064C149.735 52.5719 148.798 52.6822 147.75 52.7925L146.867 43.3062L150.011 42.8649L150.618 52.4064Z" fill="#1841D3"/>
<path d="M168.933 46.6154C168.327 46.9463 167.61 47.2772 166.893 47.6081L164.797 39.3351L167.058 38.563L168.933 46.6154Z" fill="#1841D3"/>
<path d="M111.517 43.7474L110.855 53.3992C109.752 53.3441 108.649 53.2889 107.656 53.1786L108.318 43.4165L111.517 43.7474Z" fill="#1841D3"/>
<path d="M93.9187 40.8794L92.3744 50.4209C91.4368 50.1451 90.5543 49.8694 89.6719 49.5936L91.1059 40.1624L93.9187 40.8794Z" fill="#1841D3"/>
<path d="M76.823 34.2058L75.7199 40.9897C75.4935 40.6645 75.3083 40.3125 75.1684 39.9418C74.9911 39.5929 74.8612 39.222 74.7823 38.8387C74.3117 36.9509 73.9617 35.035 73.7344 33.1028L73.8998 31.4482C73.8998 31.4482 74.8374 32.5512 75.2235 32.9373C75.5544 33.2682 76.823 34.2058 76.823 34.2058Z" fill="#1841D3"/>
<path d="M125.467 34.8125C141.702 34.8125 154.864 31.0838 154.864 26.4843C154.864 21.8848 141.702 18.1562 125.467 18.1562C109.232 18.1562 96.0703 21.8848 96.0703 26.4843C96.0703 31.0838 109.232 34.8125 125.467 34.8125Z" fill="#072359"/>
<path d="M152.325 25.1607C152.325 25.1607 150.174 27.5875 144.879 29.6833C140.963 31.2276 135.338 32.5512 127.616 32.5512C123.916 32.5757 120.222 32.2432 116.586 31.5585C106.272 29.573 101.805 25.271 101.805 25.271C101.805 25.271 104.066 8.50444 118.185 2.82366C121.452 1.5439 124.935 0.907166 128.444 0.94845C147.858 0.94845 152.325 25.1607 152.325 25.1607Z" fill="#6FA3FF"/>
<path d="M116.586 31.5585C106.272 29.573 101.805 25.271 101.805 25.271C101.805 25.271 104.066 8.50445 118.185 2.82367C115.428 5.1401 112.725 9.77297 112.284 17.329C111.843 22.9546 113.166 27.6426 116.586 31.5585Z" fill="#6FA3FF"/>
<path d="M152.32 25.1607C152.32 25.1607 150.169 27.5874 144.875 29.6833C144.323 27.6851 143.622 25.7309 142.779 23.837C142.779 23.837 137.595 24.9401 135.278 20.0315C132.962 15.1228 138.532 11.593 138.532 11.593C138.532 11.593 137.208 7.34622 130.369 4.58856C123.53 1.8309 118.07 2.82366 118.07 2.82366C121.337 1.5439 124.82 0.907166 128.329 0.94845C147.853 0.94845 152.32 25.1607 152.32 25.1607Z" fill="#6FA3FF"/>
<path d="M130.099 14.7919C130.921 14.7919 131.588 14.1499 131.588 13.3579C131.588 12.566 130.921 11.924 130.099 11.924C129.276 11.924 128.609 12.566 128.609 13.3579C128.609 14.1499 129.276 14.7919 130.099 14.7919Z" fill="#6FA3FF"/>
<path d="M124.916 16.1707C125.556 16.1707 126.074 15.6769 126.074 15.0677C126.074 14.4585 125.556 13.9646 124.916 13.9646C124.276 13.9646 123.758 14.4585 123.758 15.0677C123.758 15.6769 124.276 16.1707 124.916 16.1707Z" fill="#6FA3FF"/>
<path d="M128.394 23.6164C129.643 23.6164 130.655 22.6287 130.655 21.4103C130.655 20.1918 129.643 19.2041 128.394 19.2041C127.145 19.2041 126.133 20.1918 126.133 21.4103C126.133 22.6287 127.145 23.6164 128.394 23.6164Z" fill="#6FA3FF"/>
</g>
<defs>
<clipPath id="clip0_515_937">
<rect width="250.002" height="128.233" fill="white" transform="translate(0 0.946472)"/>
</clipPath>
</defs>
</svg>
