<svg width="60" height="64" viewBox="0 0 60 64" fill="none" xmlns="http://www.w3.org/2000/svg">
<g clip-path="url(#clip0_2_106)">
<path d="M56 4H4C1.79086 4 0 5.79086 0 8V60C0 62.2091 1.79086 64 4 64H56C58.2091 64 60 62.2091 60 60V8C60 5.79086 58.2091 4 56 4Z" fill="#2C9E7C"/>
<path d="M56 0H4C1.79086 0 0 1.79086 0 4V56C0 58.2091 1.79086 60 4 60H56C58.2091 60 60 58.2091 60 56V4C60 1.79086 58.2091 0 56 0Z" fill="url(#paint0_linear_2_106)"/>
<path d="M24.8269 30.0352H16.9497C16.626 30.0352 16.3637 30.2975 16.3637 30.6211C16.3637 30.9447 16.626 31.207 16.9497 31.207H24.8269C25.1506 31.207 25.4129 30.9447 25.4129 30.6211C25.4129 30.2975 25.1506 30.0352 24.8269 30.0352Z" fill="white"/>
<path d="M24.8269 35.1455H16.9497C16.626 35.1455 16.3637 35.4079 16.3637 35.7314C16.3637 36.055 16.626 36.3174 16.9497 36.3174H24.8269C25.1506 36.3174 25.4129 36.055 25.4129 35.7314C25.4129 35.4079 25.1506 35.1455 24.8269 35.1455Z" fill="white"/>
<path d="M24.8269 40.2563H16.9497C16.626 40.2563 16.3637 40.5187 16.3637 40.8423C16.3637 41.1659 16.626 41.4282 16.9497 41.4282H24.8269C25.1506 41.4282 25.4129 41.1659 25.4129 40.8423C25.4129 40.5187 25.1506 40.2563 24.8269 40.2563Z" fill="white"/>
<path d="M31.3979 34.4158H32.6415C32.9652 34.4158 33.2275 34.1534 33.2275 33.8298C33.2275 33.5062 32.9652 33.2439 32.6415 33.2439H31.3979C31.0742 33.2439 30.812 33.5062 30.812 33.8298C30.812 34.1534 31.0743 34.4158 31.3979 34.4158Z" fill="white"/>
<path d="M36.4193 33.2439H35.1757C34.852 33.2439 34.5898 33.5062 34.5898 33.8298C34.5898 34.1534 34.852 34.4158 35.1757 34.4158H36.4193C36.743 34.4158 37.0052 34.1534 37.0052 33.8298C37.0052 33.5062 36.7429 33.2439 36.4193 33.2439Z" fill="white"/>
<path d="M40.1971 33.2439H38.9535C38.6298 33.2439 38.3675 33.5062 38.3675 33.8298C38.3675 34.1534 38.6298 34.4158 38.9535 34.4158H40.1971C40.5207 34.4158 40.783 34.1534 40.783 33.8298C40.783 33.5062 40.5207 33.2439 40.1971 33.2439Z" fill="white"/>
<path d="M43.9751 33.2439H42.7316C42.4079 33.2439 42.1456 33.5062 42.1456 33.8298C42.1456 34.1534 42.4079 34.4158 42.7316 34.4158H43.9751C44.2988 34.4158 44.561 34.1534 44.561 33.8298C44.561 33.5062 44.2987 33.2439 43.9751 33.2439Z" fill="white"/>
<path d="M31.3979 37.4626H32.6415C32.9652 37.4626 33.2275 37.2003 33.2275 36.8767C33.2275 36.5531 32.9652 36.2908 32.6415 36.2908H31.3979C31.0742 36.2908 30.812 36.5531 30.812 36.8767C30.812 37.2003 31.0743 37.4626 31.3979 37.4626Z" fill="white"/>
<path d="M36.4193 36.2908H35.1757C34.852 36.2908 34.5898 36.5531 34.5898 36.8767C34.5898 37.2003 34.852 37.4626 35.1757 37.4626H36.4193C36.743 37.4626 37.0052 37.2003 37.0052 36.8767C37.0052 36.5531 36.7429 36.2908 36.4193 36.2908Z" fill="white"/>
<path d="M40.1971 36.2908H38.9535C38.6298 36.2908 38.3675 36.5531 38.3675 36.8767C38.3675 37.2003 38.6298 37.4626 38.9535 37.4626H40.1971C40.5207 37.4626 40.783 37.2003 40.783 36.8767C40.783 36.5531 40.5207 36.2908 40.1971 36.2908Z" fill="white"/>
<path d="M43.9751 36.2908H42.7316C42.4079 36.2908 42.1456 36.5531 42.1456 36.8767C42.1456 37.2003 42.4079 37.4626 42.7316 37.4626H43.9751C44.2988 37.4626 44.561 37.2003 44.561 36.8767C44.561 36.5531 44.2987 36.2908 43.9751 36.2908Z" fill="white"/>
<path d="M31.3979 40.5095H32.6415C32.9652 40.5095 33.2275 40.2472 33.2275 39.9236C33.2275 39.6 32.9652 39.3376 32.6415 39.3376H31.3979C31.0742 39.3376 30.812 39.6 30.812 39.9236C30.812 40.2472 31.0743 40.5095 31.3979 40.5095Z" fill="white"/>
<path d="M36.4193 39.3376H35.1757C34.852 39.3376 34.5898 39.6 34.5898 39.9236C34.5898 40.2472 34.852 40.5095 35.1757 40.5095H36.4193C36.743 40.5095 37.0052 40.2472 37.0052 39.9236C37.0052 39.6 36.7429 39.3376 36.4193 39.3376Z" fill="white"/>
<path d="M40.1971 39.3376H38.9535C38.6298 39.3376 38.3675 39.6 38.3675 39.9236C38.3675 40.2472 38.6298 40.5095 38.9535 40.5095H40.1971C40.5207 40.5095 40.783 40.2472 40.783 39.9236C40.783 39.6 40.5207 39.3376 40.1971 39.3376Z" fill="white"/>
<path d="M43.9751 39.3376H42.7316C42.4079 39.3376 42.1456 39.6 42.1456 39.9236C42.1456 40.2472 42.4079 40.5095 42.7316 40.5095H43.9751C44.2988 40.5095 44.561 40.2472 44.561 39.9236C44.561 39.6 44.2987 39.3376 43.9751 39.3376Z" fill="white"/>
<path d="M18.2419 24.2002C17.9713 24.023 17.608 24.099 17.4308 24.3697C17.2536 24.6405 17.3295 25.0037 17.6004 25.1808C18.458 25.7419 19.0371 25.897 19.8057 25.9323V26.7211C19.8057 27.0447 20.068 27.307 20.3916 27.307C20.7153 27.307 20.9776 27.0447 20.9776 26.7211V25.8885C22.4649 25.6254 23.3333 24.4124 23.5237 23.2798C23.7645 21.8472 23.0146 20.6015 21.6132 20.1061C21.3845 20.0253 21.1735 19.9479 20.9776 19.8729V16.5961C21.5478 16.7077 21.8893 16.9996 21.9166 17.0236C22.1545 17.2397 22.5227 17.2238 22.7412 16.9871C22.9606 16.7492 22.9456 16.3785 22.7077 16.1591C22.6702 16.1245 22.0275 15.5464 20.9776 15.4096V14.7039C20.9776 14.3803 20.7153 14.1179 20.3916 14.1179C20.068 14.1179 19.8057 14.3803 19.8057 14.7039V15.4546C19.6904 15.4782 19.5723 15.5078 19.4517 15.5441C18.532 15.8211 17.8447 16.609 17.6578 17.6003C17.488 18.5018 17.775 19.3696 18.4071 19.8654C18.7579 20.1405 19.1973 20.3924 19.8057 20.6602V24.7602C19.2359 24.7293 18.8681 24.6098 18.2419 24.2002ZM20.9776 21.1233C21.0574 21.1522 21.1388 21.1814 21.2227 21.2111C22.5019 21.6632 22.4227 22.7601 22.3681 23.0856C22.2574 23.7442 21.7842 24.4459 20.9776 24.6844V21.1233ZM19.1302 18.9432C18.8438 18.7186 18.7209 18.2871 18.8095 17.8173C18.8921 17.3786 19.1931 16.8458 19.7897 16.666C19.7951 16.6644 19.8003 16.6632 19.8057 16.6616V19.3636C19.5297 19.2213 19.309 19.0835 19.1302 18.9432Z" fill="white"/>
<path d="M42.6929 46.5519C42.3692 46.5519 42.1069 46.8143 42.1069 47.1379V47.5569C42.1069 48.2579 41.5366 48.8282 40.8356 48.8282H14.4432C13.7421 48.8282 13.1719 48.2579 13.1719 47.5569V12.4432C13.1719 11.7422 13.7421 11.1719 14.4432 11.1719H34.9439C35.0058 11.1719 35.0668 11.1779 35.1273 11.1867V16.0862C35.1273 17.225 36.0538 18.1515 37.1926 18.1515H42.0921C42.1009 18.212 42.1069 18.2729 42.1069 18.3349V21.1321C42.1069 21.4556 42.3692 21.718 42.6929 21.718C43.0166 21.718 43.2788 21.4556 43.2788 21.1321V18.3349C43.2788 17.6651 42.9581 17.0004 42.5756 16.6202C42.3351 16.3797 36.6779 10.7219 36.6715 10.7156L36.6582 10.7024C36.6577 10.702 36.6572 10.7014 36.6566 10.7009C36.655 10.6994 36.6532 10.6976 36.6515 10.6959C36.2111 10.2658 35.6039 10 34.9439 10H14.4432C13.096 10 12 11.096 12 12.4432V47.5568C12 48.904 13.096 50 14.4432 50H40.8355C42.1827 50 43.2787 48.904 43.2787 47.5568V47.1378C43.2788 46.8143 43.0165 46.5519 42.6929 46.5519ZM36.2992 12.0006C36.7357 12.4371 40.6888 16.3901 41.2783 16.9796H37.1926C36.6999 16.9796 36.2991 16.5788 36.2991 16.0862L36.2992 12.0006Z" fill="white"/>
<path d="M45.5751 23.2952H29.798C28.6765 23.2952 27.7639 24.2077 27.7639 25.3293V27.3005C27.7639 27.6241 28.0262 27.8864 28.3498 27.8864C28.6735 27.8864 28.9358 27.6241 28.9358 27.3005V25.3293C28.9358 24.8539 29.3226 24.467 29.798 24.467H45.5751C46.0505 24.467 46.4373 24.8538 46.4373 25.3293V42.9538C46.4373 43.4292 46.0505 43.8161 45.5751 43.8161H29.798C29.3226 43.8161 28.9358 43.4293 28.9358 42.9538V30.0398C28.9358 29.7162 28.6735 29.4539 28.3498 29.4539C28.0262 29.4539 27.7639 29.7162 27.7639 30.0398V42.9538C27.7639 44.0754 28.6765 44.9879 29.798 44.9879H45.5751C46.6967 44.9879 47.6092 44.0754 47.6092 42.9538V25.3292C47.6092 24.2077 46.6967 23.2952 45.5751 23.2952Z" fill="white"/>
<path d="M44.5608 27.1718C44.5608 26.6003 44.0958 26.1353 43.5243 26.1353H31.8486C31.2771 26.1353 30.812 26.6003 30.812 27.1718V30.1706C30.812 30.7421 31.277 31.2071 31.8486 31.2071H43.5243C44.0958 31.2071 44.5608 30.7421 44.5608 30.1706V27.1718ZM43.389 30.0353H31.9839V27.3071H43.3889L43.389 30.0353Z" fill="white"/>
<g clip-path="url(#clip1_2_106)">
<path d="M56 4H4C1.79086 4 0 5.79086 0 8V60C0 62.2091 1.79086 64 4 64H56C58.2091 64 60 62.2091 60 60V8C60 5.79086 58.2091 4 56 4Z" fill="#CF8F2E"/>
<path d="M56 0H4C1.79086 0 0 1.79086 0 4V56C0 58.2091 1.79086 60 4 60H56C58.2091 60 60 58.2091 60 56V4C60 1.79086 58.2091 0 56 0Z" fill="url(#paint1_linear_2_106)"/>
<path d="M29.6383 43.8115C29.493 43.6662 29.2914 43.5825 29.0859 43.5825C28.8805 43.5825 28.6789 43.6661 28.5336 43.8115C28.3883 43.9567 28.3047 44.1583 28.3047 44.3638C28.3047 44.5701 28.3883 44.7708 28.5336 44.9161C28.6789 45.0622 28.8805 45.145 29.0859 45.145C29.2914 45.145 29.493 45.0622 29.6383 44.9161C29.7836 44.7708 29.8672 44.5693 29.8672 44.3638C29.8672 44.1583 29.7835 43.9567 29.6383 43.8115Z" fill="white"/>
<path d="M33.3579 36.6045V30.8559C33.3579 30.5964 33.229 30.3537 33.0139 30.2085C32.7989 30.0632 32.5257 30.0343 32.2848 30.1312L18.8229 35.5528H14.4869C12.0129 35.5528 10 37.5657 10 40.0399C10 42.5142 12.0129 44.527 14.4871 44.527H15.0034V49.2186C15.0034 49.65 15.3532 49.9999 15.7847 49.9999H18.974C19.4055 49.9999 19.7553 49.65 19.7553 49.2186V44.9039L32.2852 49.9434C32.3792 49.9813 32.4782 49.9999 32.5766 49.9999C32.7303 49.9999 32.883 49.9545 33.0141 49.866C33.2291 49.7208 33.3579 49.4781 33.3579 49.2187V43.4702C34.9246 43.1137 36.0979 41.7104 36.0979 40.0374C36.0979 38.3643 34.9246 36.961 33.3579 36.6045ZM18.1927 48.4374H16.5659V44.527H18.1928L18.1927 48.4374ZM18.1929 42.9645H14.4871C12.8744 42.9645 11.5625 41.6525 11.5625 40.0399C11.5625 38.4273 12.8744 37.1153 14.4871 37.1153H18.1932L18.1929 42.9645ZM31.7955 48.0623L19.7557 43.2199V36.8616L28.3047 33.4186V41.1717C28.3047 41.6031 28.6544 41.953 29.0859 41.953C29.5174 41.953 29.8671 41.6031 29.8671 41.1717V32.7893L31.7955 32.0127V48.0623ZM33.3579 41.833V38.2416C34.0502 38.5439 34.5354 39.2349 34.5354 40.0373C34.5354 40.8397 34.0503 41.5306 33.3579 41.833Z" fill="white"/>
<path d="M43.551 39.2793H39.1277C38.6962 39.2793 38.3464 39.6291 38.3464 40.0605C38.3464 40.492 38.6962 40.8418 39.1277 40.8418H43.551C43.9824 40.8418 44.3322 40.492 44.3322 40.0605C44.3322 39.6291 43.9824 39.2793 43.551 39.2793Z" fill="white"/>
<path d="M39.9235 33.5544C39.6184 33.2494 39.1237 33.2494 38.8186 33.5544L37.2928 35.0802C36.9877 35.3853 36.9877 35.88 37.2928 36.1851C37.4454 36.3376 37.6454 36.414 37.8453 36.414C38.0452 36.414 38.2452 36.3376 38.3977 36.1851L39.9235 34.6594C40.2285 34.3543 40.2285 33.8596 39.9235 33.5544Z" fill="white"/>
<path d="M39.9808 45.3886L38.404 43.8118C38.099 43.5068 37.6043 43.5068 37.2991 43.8118C36.994 44.1168 36.994 44.6115 37.2991 44.9167L38.876 46.4935C39.0286 46.646 39.2285 46.7224 39.4284 46.7224C39.6283 46.7224 39.8283 46.646 39.9808 46.4935C40.2859 46.1885 40.2859 45.6938 39.9808 45.3886Z" fill="white"/>
<path d="M46.8749 10H32.3437C30.6206 10 29.2187 11.4019 29.2187 13.125V13.4375H16.0937C15.0598 13.4375 14.2188 14.2787 14.2188 15.3125V27.6562C14.2188 28.69 15.0598 29.5312 16.0937 29.5312H16.901V31.9271C16.901 32.2431 17.0914 32.5279 17.3833 32.6489C17.4799 32.6889 17.5814 32.7083 17.6821 32.7083C17.8854 32.7083 18.0852 32.6289 18.2347 32.4795L21.183 29.5312H36.7015C37.7354 29.5312 38.5765 28.69 38.5765 27.6562V25.3125H46.8749C48.5981 25.3125 49.9999 23.9106 49.9999 22.1875V13.125C49.9998 11.4019 48.5981 10 46.8749 10ZM37.014 27.6562C37.014 27.8286 36.8739 27.9687 36.7015 27.9687H20.8594C20.6522 27.9687 20.4534 28.0511 20.3069 28.1975L18.4636 30.041V28.75C18.4636 28.3186 18.1138 27.9687 17.6823 27.9687H16.0937C15.9214 27.9687 15.7812 27.8286 15.7812 27.6562V15.3125C15.7812 15.1401 15.9214 15 16.0937 15H29.2187V22.1875C29.2187 23.9106 30.6206 25.3125 32.3437 25.3125H37.014V27.6562ZM48.4374 22.1875C48.4374 23.049 47.7365 23.75 46.8749 23.75H32.3437C31.4822 23.75 30.7812 23.049 30.7812 22.1875V13.125C30.7812 12.2634 31.4822 11.5625 32.3437 11.5625H46.8749C47.7365 11.5625 48.4374 12.2634 48.4374 13.125V22.1875Z" fill="white"/>
<path d="M42.748 16.9798L37.4011 13.8928C37.1594 13.7532 36.8616 13.7532 36.6199 13.8928C36.3782 14.0323 36.2292 14.2903 36.2292 14.5694V20.7433C36.2292 21.0224 36.3782 21.2804 36.6199 21.4199C36.7407 21.4897 36.8756 21.5246 37.0105 21.5246C37.1454 21.5246 37.2803 21.4897 37.4011 21.4199L42.748 18.3329C42.9897 18.1933 43.1386 17.9354 43.1386 17.6563C43.1386 17.3772 42.9898 17.1193 42.748 16.9798ZM37.7917 19.3902V15.9226L40.7949 17.6564L37.7917 19.3902Z" fill="white"/>
<path d="M26.7588 18.2031H18.9463C18.5148 18.2031 18.165 18.553 18.165 18.9844C18.165 19.4158 18.5148 19.7656 18.9463 19.7656H26.7588C27.1903 19.7656 27.54 19.4158 27.54 18.9844C27.54 18.553 27.1903 18.2031 26.7588 18.2031Z" fill="white"/>
<path d="M27.3111 22.807C27.1658 22.6616 26.9643 22.5781 26.7588 22.5781C26.5533 22.5781 26.3518 22.6616 26.2064 22.807C26.0611 22.9523 25.9775 23.1539 25.9775 23.3594C25.9775 23.5648 26.0611 23.7664 26.2064 23.9116C26.3518 24.057 26.5533 24.1406 26.7588 24.1406C26.965 24.1406 27.1658 24.057 27.3111 23.9116C27.4564 23.7664 27.54 23.5648 27.54 23.3594C27.54 23.1539 27.4564 22.9523 27.3111 22.807Z" fill="white"/>
<path d="M23.8282 22.5781H18.9463C18.5148 22.5781 18.165 22.928 18.165 23.3594C18.165 23.7908 18.5148 24.1406 18.9463 24.1406H23.8282C24.2597 24.1406 24.6095 23.7908 24.6095 23.3594C24.6095 22.928 24.2597 22.5781 23.8282 22.5781Z" fill="white"/>
</g>
</g>
<defs>
<linearGradient id="paint0_linear_2_106" x1="30" y1="0" x2="30" y2="60" gradientUnits="userSpaceOnUse">
<stop stop-color="#75E0C0"/>
<stop offset="1" stop-color="#3ABD96"/>
</linearGradient>
<linearGradient id="paint1_linear_2_106" x1="30" y1="0" x2="30" y2="60" gradientUnits="userSpaceOnUse">
<stop stop-color="#FCD498"/>
<stop offset="1" stop-color="#E99C28"/>
</linearGradient>
<clipPath id="clip0_2_106">
<rect width="60" height="64" fill="white"/>
</clipPath>
<clipPath id="clip1_2_106">
<rect width="60" height="64" fill="white"/>
</clipPath>
</defs>
</svg>
