<svg width="60" height="64" viewBox="0 0 60 64" fill="none" xmlns="http://www.w3.org/2000/svg">
<g clip-path="url(#clip0_2_431)">
<path d="M56 4H4C1.79086 4 0 5.79086 0 8V60C0 62.2091 1.79086 64 4 64H56C58.2091 64 60 62.2091 60 60V8C60 5.79086 58.2091 4 56 4Z" fill="#2C9E7C"/>
<path d="M56 0H4C1.79086 0 0 1.79086 0 4V56C0 58.2091 1.79086 60 4 60H56C58.2091 60 60 58.2091 60 56V4C60 1.79086 58.2091 0 56 0Z" fill="url(#paint0_linear_2_431)"/>
<path d="M24.8269 30.0352H16.9497C16.626 30.0352 16.3637 30.2975 16.3637 30.6211C16.3637 30.9447 16.626 31.207 16.9497 31.207H24.8269C25.1506 31.207 25.4129 30.9447 25.4129 30.6211C25.4129 30.2975 25.1506 30.0352 24.8269 30.0352Z" fill="white"/>
<path d="M24.8269 35.1455H16.9497C16.626 35.1455 16.3637 35.4079 16.3637 35.7314C16.3637 36.055 16.626 36.3174 16.9497 36.3174H24.8269C25.1506 36.3174 25.4129 36.055 25.4129 35.7314C25.4129 35.4079 25.1506 35.1455 24.8269 35.1455Z" fill="white"/>
<path d="M24.8269 40.2563H16.9497C16.626 40.2563 16.3637 40.5187 16.3637 40.8423C16.3637 41.1659 16.626 41.4282 16.9497 41.4282H24.8269C25.1506 41.4282 25.4129 41.1659 25.4129 40.8423C25.4129 40.5187 25.1506 40.2563 24.8269 40.2563Z" fill="white"/>
<path d="M31.3979 34.4158H32.6415C32.9652 34.4158 33.2275 34.1534 33.2275 33.8298C33.2275 33.5062 32.9652 33.2439 32.6415 33.2439H31.3979C31.0742 33.2439 30.812 33.5062 30.812 33.8298C30.812 34.1534 31.0743 34.4158 31.3979 34.4158Z" fill="white"/>
<path d="M36.4193 33.2439H35.1757C34.852 33.2439 34.5898 33.5062 34.5898 33.8298C34.5898 34.1534 34.852 34.4158 35.1757 34.4158H36.4193C36.743 34.4158 37.0052 34.1534 37.0052 33.8298C37.0052 33.5062 36.7429 33.2439 36.4193 33.2439Z" fill="white"/>
<path d="M40.1971 33.2439H38.9535C38.6298 33.2439 38.3675 33.5062 38.3675 33.8298C38.3675 34.1534 38.6298 34.4158 38.9535 34.4158H40.1971C40.5207 34.4158 40.783 34.1534 40.783 33.8298C40.783 33.5062 40.5207 33.2439 40.1971 33.2439Z" fill="white"/>
<path d="M43.9751 33.2439H42.7316C42.4079 33.2439 42.1456 33.5062 42.1456 33.8298C42.1456 34.1534 42.4079 34.4158 42.7316 34.4158H43.9751C44.2988 34.4158 44.561 34.1534 44.561 33.8298C44.561 33.5062 44.2987 33.2439 43.9751 33.2439Z" fill="white"/>
<path d="M31.3979 37.4626H32.6415C32.9652 37.4626 33.2275 37.2003 33.2275 36.8767C33.2275 36.5531 32.9652 36.2908 32.6415 36.2908H31.3979C31.0742 36.2908 30.812 36.5531 30.812 36.8767C30.812 37.2003 31.0743 37.4626 31.3979 37.4626Z" fill="white"/>
<path d="M36.4193 36.2908H35.1757C34.852 36.2908 34.5898 36.5531 34.5898 36.8767C34.5898 37.2003 34.852 37.4626 35.1757 37.4626H36.4193C36.743 37.4626 37.0052 37.2003 37.0052 36.8767C37.0052 36.5531 36.7429 36.2908 36.4193 36.2908Z" fill="white"/>
<path d="M40.1971 36.2908H38.9535C38.6298 36.2908 38.3675 36.5531 38.3675 36.8767C38.3675 37.2003 38.6298 37.4626 38.9535 37.4626H40.1971C40.5207 37.4626 40.783 37.2003 40.783 36.8767C40.783 36.5531 40.5207 36.2908 40.1971 36.2908Z" fill="white"/>
<path d="M43.9751 36.2908H42.7316C42.4079 36.2908 42.1456 36.5531 42.1456 36.8767C42.1456 37.2003 42.4079 37.4626 42.7316 37.4626H43.9751C44.2988 37.4626 44.561 37.2003 44.561 36.8767C44.561 36.5531 44.2987 36.2908 43.9751 36.2908Z" fill="white"/>
<path d="M31.3979 40.5095H32.6415C32.9652 40.5095 33.2275 40.2472 33.2275 39.9236C33.2275 39.6 32.9652 39.3376 32.6415 39.3376H31.3979C31.0742 39.3376 30.812 39.6 30.812 39.9236C30.812 40.2472 31.0743 40.5095 31.3979 40.5095Z" fill="white"/>
<path d="M36.4193 39.3376H35.1757C34.852 39.3376 34.5898 39.6 34.5898 39.9236C34.5898 40.2472 34.852 40.5095 35.1757 40.5095H36.4193C36.743 40.5095 37.0052 40.2472 37.0052 39.9236C37.0052 39.6 36.7429 39.3376 36.4193 39.3376Z" fill="white"/>
<path d="M40.1971 39.3376H38.9535C38.6298 39.3376 38.3675 39.6 38.3675 39.9236C38.3675 40.2472 38.6298 40.5095 38.9535 40.5095H40.1971C40.5207 40.5095 40.783 40.2472 40.783 39.9236C40.783 39.6 40.5207 39.3376 40.1971 39.3376Z" fill="white"/>
<path d="M43.9751 39.3376H42.7316C42.4079 39.3376 42.1456 39.6 42.1456 39.9236C42.1456 40.2472 42.4079 40.5095 42.7316 40.5095H43.9751C44.2988 40.5095 44.561 40.2472 44.561 39.9236C44.561 39.6 44.2987 39.3376 43.9751 39.3376Z" fill="white"/>
<path d="M18.2419 24.2002C17.9713 24.023 17.608 24.099 17.4308 24.3697C17.2536 24.6405 17.3295 25.0037 17.6004 25.1808C18.458 25.7419 19.0371 25.897 19.8057 25.9323V26.7211C19.8057 27.0447 20.068 27.307 20.3916 27.307C20.7153 27.307 20.9776 27.0447 20.9776 26.7211V25.8885C22.4649 25.6254 23.3333 24.4124 23.5237 23.2798C23.7645 21.8472 23.0146 20.6015 21.6132 20.1061C21.3845 20.0253 21.1735 19.9479 20.9776 19.8729V16.5961C21.5478 16.7077 21.8893 16.9996 21.9166 17.0236C22.1545 17.2397 22.5227 17.2238 22.7412 16.9871C22.9606 16.7492 22.9456 16.3785 22.7077 16.1591C22.6702 16.1245 22.0275 15.5464 20.9776 15.4096V14.7039C20.9776 14.3803 20.7153 14.1179 20.3916 14.1179C20.068 14.1179 19.8057 14.3803 19.8057 14.7039V15.4546C19.6904 15.4782 19.5723 15.5078 19.4517 15.5441C18.532 15.8211 17.8447 16.609 17.6578 17.6003C17.488 18.5018 17.775 19.3696 18.4071 19.8654C18.7579 20.1405 19.1973 20.3924 19.8057 20.6602V24.7602C19.2359 24.7293 18.8681 24.6098 18.2419 24.2002ZM20.9776 21.1233C21.0574 21.1522 21.1388 21.1814 21.2227 21.2111C22.5019 21.6632 22.4227 22.7601 22.3681 23.0856C22.2574 23.7442 21.7842 24.4459 20.9776 24.6844V21.1233ZM19.1302 18.9432C18.8438 18.7186 18.7209 18.2871 18.8095 17.8173C18.8921 17.3786 19.1931 16.8458 19.7897 16.666C19.7951 16.6644 19.8003 16.6632 19.8057 16.6616V19.3636C19.5297 19.2213 19.309 19.0835 19.1302 18.9432Z" fill="white"/>
<path d="M42.6929 46.5519C42.3692 46.5519 42.1069 46.8143 42.1069 47.1379V47.5569C42.1069 48.2579 41.5366 48.8282 40.8356 48.8282H14.4432C13.7421 48.8282 13.1719 48.2579 13.1719 47.5569V12.4432C13.1719 11.7422 13.7421 11.1719 14.4432 11.1719H34.9439C35.0058 11.1719 35.0668 11.1779 35.1273 11.1867V16.0862C35.1273 17.225 36.0538 18.1515 37.1926 18.1515H42.0921C42.1009 18.212 42.1069 18.2729 42.1069 18.3349V21.1321C42.1069 21.4556 42.3692 21.718 42.6929 21.718C43.0166 21.718 43.2788 21.4556 43.2788 21.1321V18.3349C43.2788 17.6651 42.9581 17.0004 42.5756 16.6202C42.3351 16.3797 36.6779 10.7219 36.6715 10.7156L36.6582 10.7024C36.6577 10.702 36.6572 10.7014 36.6566 10.7009C36.655 10.6994 36.6532 10.6976 36.6515 10.6959C36.2111 10.2658 35.6039 10 34.9439 10H14.4432C13.096 10 12 11.096 12 12.4432V47.5568C12 48.904 13.096 50 14.4432 50H40.8355C42.1827 50 43.2787 48.904 43.2787 47.5568V47.1378C43.2788 46.8143 43.0165 46.5519 42.6929 46.5519ZM36.2992 12.0006C36.7357 12.4371 40.6888 16.3901 41.2783 16.9796H37.1926C36.6999 16.9796 36.2991 16.5788 36.2991 16.0862L36.2992 12.0006Z" fill="white"/>
<path d="M45.5751 23.2952H29.798C28.6765 23.2952 27.7639 24.2077 27.7639 25.3293V27.3005C27.7639 27.6241 28.0262 27.8864 28.3498 27.8864C28.6735 27.8864 28.9358 27.6241 28.9358 27.3005V25.3293C28.9358 24.8539 29.3226 24.467 29.798 24.467H45.5751C46.0505 24.467 46.4373 24.8538 46.4373 25.3293V42.9538C46.4373 43.4292 46.0505 43.8161 45.5751 43.8161H29.798C29.3226 43.8161 28.9358 43.4293 28.9358 42.9538V30.0398C28.9358 29.7162 28.6735 29.4539 28.3498 29.4539C28.0262 29.4539 27.7639 29.7162 27.7639 30.0398V42.9538C27.7639 44.0754 28.6765 44.9879 29.798 44.9879H45.5751C46.6967 44.9879 47.6092 44.0754 47.6092 42.9538V25.3292C47.6092 24.2077 46.6967 23.2952 45.5751 23.2952Z" fill="white"/>
<path d="M44.5608 27.1718C44.5608 26.6003 44.0958 26.1353 43.5243 26.1353H31.8486C31.2771 26.1353 30.812 26.6003 30.812 27.1718V30.1706C30.812 30.7421 31.277 31.2071 31.8486 31.2071H43.5243C44.0958 31.2071 44.5608 30.7421 44.5608 30.1706V27.1718ZM43.389 30.0353H31.9839V27.3071H43.3889L43.389 30.0353Z" fill="white"/>
<g clip-path="url(#clip1_2_431)">
<path d="M56 4H4C1.79086 4 0 5.79086 0 8V60C0 62.2091 1.79086 64 4 64H56C58.2091 64 60 62.2091 60 60V8C60 5.79086 58.2091 4 56 4Z" fill="#4A77EC"/>
<path d="M56 0H4C1.79086 0 0 1.79086 0 4V56C0 58.2091 1.79086 60 4 60H56C58.2091 60 60 58.2091 60 56V4C60 1.79086 58.2091 0 56 0Z" fill="url(#paint1_linear_2_431)"/>
<path d="M15.0831 46.416C14.8126 46.1922 14.5475 45.9508 14.2951 45.6984C10.5952 41.9985 10.1077 36.4658 13.2083 33.3652C14.5614 32.0121 16.4525 31.2876 18.5354 31.324C18.5561 31.3244 18.5764 31.3246 18.5969 31.3246C20.2113 31.3244 21.6392 30.1777 22.0059 28.5757C22.2392 27.5501 22.7411 26.6297 23.4576 25.9138C24.1507 25.2207 25.0002 24.7433 25.9825 24.4948C26.2963 24.4154 26.4862 24.0967 26.4069 23.783C26.3274 23.4692 26.0089 23.2793 25.6951 23.3586C24.5219 23.6554 23.4617 24.2524 22.6292 25.0849C21.7562 25.9571 21.1456 27.0743 20.8634 28.315C20.6112 29.4166 19.6627 30.1739 18.5565 30.1522C16.1524 30.1108 13.9598 30.9564 12.3798 32.5365C8.82221 36.0941 9.30983 42.3703 13.4666 46.5271C13.7449 46.8054 14.0376 47.0719 14.3364 47.319C14.4457 47.4094 14.578 47.4535 14.7095 47.4535C14.8782 47.4535 15.0456 47.381 15.1614 47.241C15.3675 46.9916 15.3325 46.6222 15.0831 46.416Z" fill="white"/>
<path d="M49.5119 12.6725L47.3211 10.4816C46.7177 9.87827 45.7341 9.83686 45.0822 10.387L41.0904 13.7505C40.7062 14.0743 40.4489 14.5246 40.3659 15.0182L40.1604 16.2333L31.8433 24.297C30.8315 23.7321 29.7309 23.3579 28.6339 23.2094C28.3131 23.1656 28.018 23.3907 27.9746 23.7114C27.9312 24.0321 28.1559 24.3273 28.4766 24.3707C29.3178 24.4846 30.1637 24.7531 30.959 25.1544L26.0127 29.9499C25.9541 29.9475 25.8953 29.9456 25.8363 29.9456C24.7113 29.9456 23.6536 30.3837 22.8582 31.1792C21.216 32.8213 21.216 35.4933 22.8582 37.1354C23.6793 37.9566 24.7577 38.367 25.8363 38.367C26.9148 38.367 27.9935 37.9564 28.8145 37.1354C29.6799 36.27 30.0887 35.1186 30.0419 33.9827L34.8393 29.0345C36.1885 31.7033 35.9125 34.7033 34.0798 36.5361C33.3641 37.2518 32.4437 37.7538 31.4182 37.9878C29.7969 38.3578 28.6409 39.8172 28.6695 41.4582C28.7071 43.5391 27.9822 45.4307 26.6284 46.7844C24.3389 49.0739 20.6624 49.4822 17.2621 47.8245C16.971 47.6828 16.6204 47.8035 16.4786 48.0945C16.3368 48.3853 16.4576 48.7362 16.7485 48.878C18.2673 49.6184 19.873 49.9998 21.4467 49.9997C21.783 49.9997 22.1181 49.9823 22.4503 49.9472C24.4052 49.7408 26.1365 48.9337 27.4571 47.6131C29.038 46.0323 29.8847 43.8389 29.8414 41.4373C29.8221 40.3304 30.5777 39.3816 31.679 39.1303C32.9199 38.8471 34.0366 38.2365 34.9085 37.3647C37.1872 35.0861 37.487 31.3526 35.6964 28.1505L43.7604 19.8329L44.9749 19.6276C45.4702 19.5443 45.9208 19.2868 46.2431 18.9031L47.0049 17.9991C47.2134 17.7517 47.1818 17.382 46.9344 17.1734C46.687 16.965 46.3172 16.9965 46.1087 17.2439L45.3463 18.1487C45.2024 18.32 45.0015 18.4348 44.78 18.4721L43.6736 18.6591L41.3344 16.32L41.5216 15.2131C41.5587 14.9926 41.6737 14.7915 41.8456 14.6467L45.8376 11.2829C46.0284 11.122 46.316 11.134 46.4923 11.3103L48.6827 13.5007C48.862 13.6804 48.8741 13.9621 48.7104 14.1561L47.8674 15.1562C47.6588 15.4036 47.6902 15.7733 47.9377 15.9819C48.1852 16.1905 48.5548 16.1589 48.7634 15.9115L49.6062 14.9116C50.1653 14.2492 50.1249 13.2867 49.5119 12.6725ZM33.9513 28.2667L31.7268 26.0422L33.4361 24.3851L35.6085 26.5574L33.9513 28.2667ZM33.1355 29.1083L31.4787 30.8171L29.1765 28.5148L30.8853 26.8581L33.1355 29.1083ZM34.2777 23.5692L35.9865 21.9124L38.0812 24.007L36.4244 25.7159L34.2777 23.5692ZM36.8281 21.0965L38.5369 19.4398L40.5538 21.4567L38.897 23.1655L36.8281 21.0965ZM27.9858 36.3067C26.8005 37.4919 24.8721 37.4919 23.6868 36.3067C22.5017 35.1215 22.5017 33.193 23.6868 32.0078C24.261 31.4337 25.0244 31.1175 25.8363 31.1175C26.6482 31.1175 27.4117 31.4337 27.9858 32.0078C29.171 33.193 29.171 35.1215 27.9858 36.3067ZM28.8145 31.1791C28.4025 30.7671 27.9198 30.4519 27.3942 30.2429L28.335 29.3307L30.6628 31.6585L29.7493 32.6009C29.544 32.0829 29.2329 31.5975 28.8145 31.1791ZM41.3696 20.6152L39.3784 18.6239L40.6998 17.3428L42.6507 19.2938L41.3696 20.6152Z" fill="white"/>
<path d="M14.4147 39.5594C13.7109 40.2631 13.7109 41.4082 14.4147 42.1119L17.8818 45.5791C18.2337 45.931 18.6958 46.1069 19.1581 46.1069C19.6203 46.1069 20.0824 45.931 20.4343 45.5791C21.138 44.8754 21.138 43.7303 20.4343 43.0266L16.9672 39.5594C16.2635 38.8556 15.1184 38.8555 14.4147 39.5594ZM19.6057 44.7503C19.3589 44.9971 18.9573 44.9971 18.7105 44.7503L15.2434 41.2832C14.9966 41.0364 14.9966 40.6349 15.2434 40.388C15.3668 40.2647 15.5289 40.2029 15.691 40.2029C15.8531 40.2029 16.0152 40.2647 16.1386 40.388L19.6058 43.8552C19.8525 44.102 19.8524 44.5036 19.6057 44.7503Z" fill="white"/>
<path d="M48.2089 28.7114C47.9106 28.4643 47.5212 28.3639 47.1407 28.4359L42.9032 29.2379C42.2916 29.3536 41.8478 29.8893 41.8478 30.5117V35.6303C41.5195 35.447 41.1418 35.342 40.7399 35.342C39.4829 35.342 38.4602 36.3648 38.4602 37.6218C38.4602 38.8789 39.4829 39.9016 40.7399 39.9016C41.997 39.9016 43.0197 38.879 43.0197 37.6218V32.9498L47.5062 32.1008V34.5594C47.178 34.3761 46.8003 34.2712 46.3984 34.2712C45.1414 34.2712 44.1186 35.2938 44.1186 36.551C44.1186 37.8081 45.1413 38.8308 46.3984 38.8308C47.6555 38.8308 48.6782 37.808 48.6782 36.551V29.7097C48.6783 29.3224 48.5072 28.9585 48.2089 28.7114ZM40.74 38.7297C40.1292 38.7297 39.6322 38.2328 39.6322 37.6219C39.6322 37.011 40.1292 36.5141 40.74 36.5141C41.3508 36.5141 41.8478 37.0111 41.8478 37.6219C41.8478 38.2327 41.3508 38.7297 40.74 38.7297ZM43.0198 31.7572V30.5118C43.0198 30.452 43.0624 30.4006 43.1211 30.3895L47.3587 29.5875C47.4063 29.5784 47.4407 29.5969 47.4612 29.6139C47.4818 29.6308 47.5063 29.6613 47.5063 29.7097V30.9081L43.0198 31.7572ZM46.3985 37.6588C45.7877 37.6588 45.2907 37.1618 45.2907 36.551C45.2907 35.9401 45.7876 35.4432 46.3985 35.4432C47.0094 35.4432 47.5063 35.9401 47.5063 36.551C47.5063 37.1619 47.0093 37.6588 46.3985 37.6588Z" fill="white"/>
<path d="M21.3138 23.1948C22.5708 23.1948 23.5936 22.1721 23.5936 20.915V16.243L28.08 15.394V17.8526C27.7518 17.6693 27.3741 17.5644 26.9722 17.5644C25.7151 17.5644 24.6924 18.5871 24.6924 19.8441C24.6924 21.1012 25.7151 22.1239 26.9722 22.1239C28.2292 22.1239 29.252 21.1013 29.252 19.8441V13.0028C29.252 12.6155 29.0809 12.2517 28.7827 12.0046C28.4845 11.7574 28.095 11.6571 27.7145 11.7291L23.4769 12.5311C22.8654 12.6468 22.4216 13.1825 22.4216 13.8049V18.9235C22.0934 18.7402 21.7157 18.6353 21.3138 18.6353C20.0567 18.6353 19.034 19.658 19.034 20.9151C19.034 22.1722 20.0567 23.1948 21.3138 23.1948ZM26.9722 20.9519C26.3614 20.9519 25.8644 20.455 25.8644 19.8441C25.8644 19.2332 26.3614 18.7363 26.9722 18.7363C27.5831 18.7363 28.0801 19.2332 28.0801 19.8441C28.0801 20.4549 27.5831 20.9519 26.9722 20.9519ZM23.6949 13.6825L27.9324 12.8805C27.9801 12.8716 28.0144 12.8899 28.035 12.907C28.0555 12.924 28.0801 12.9544 28.0801 13.0028V14.2011L23.5936 15.0502V13.8048C23.5936 13.7451 23.6362 13.6936 23.6949 13.6825ZM21.3138 19.8072C21.9246 19.8072 22.4216 20.3041 22.4216 20.915C22.4216 21.5259 21.9247 22.0228 21.3138 22.0228C20.7029 22.0228 20.206 21.5258 20.206 20.915C20.206 20.3042 20.7029 19.8072 21.3138 19.8072Z" fill="white"/>
</g>
</g>
<defs>
<linearGradient id="paint0_linear_2_431" x1="30" y1="0" x2="30" y2="60" gradientUnits="userSpaceOnUse">
<stop stop-color="#75E0C0"/>
<stop offset="1" stop-color="#3ABD96"/>
</linearGradient>
<linearGradient id="paint1_linear_2_431" x1="30" y1="0" x2="30" y2="60" gradientUnits="userSpaceOnUse">
<stop stop-color="#98B4FC"/>
<stop offset="1" stop-color="#618DFF"/>
</linearGradient>
<clipPath id="clip0_2_431">
<rect width="60" height="64" fill="white"/>
</clipPath>
<clipPath id="clip1_2_431">
<rect width="60" height="64" fill="white"/>
</clipPath>
</defs>
</svg>
