<svg width="24" height="25" viewBox="0 0 24 25" fill="none" xmlns="http://www.w3.org/2000/svg">
<path d="M22.46 6.30469C21.69 6.65469 20.86 6.88469 20 6.99469C20.88 6.46469 21.56 5.62469 21.88 4.61469C21.05 5.11469 20.13 5.46469 19.16 5.66469C18.37 4.80469 17.26 4.30469 16 4.30469C13.65 4.30469 11.73 6.22469 11.73 8.59469C11.73 8.93469 11.77 9.26469 11.84 9.57469C8.28004 9.39469 5.11004 7.68469 3.00004 5.09469C2.63004 5.72469 2.42004 6.46469 2.42004 7.24469C2.42004 8.73469 3.17004 10.0547 4.33004 10.8047C3.62004 10.8047 2.96004 10.6047 2.38004 10.3047V10.3347C2.38004 12.4147 3.86004 14.1547 5.82004 14.5447C5.19077 14.7169 4.53013 14.7409 3.89004 14.6147C4.16165 15.4672 4.69358 16.2131 5.41106 16.7476C6.12854 17.2821 6.99549 17.5784 7.89004 17.5947C6.37367 18.7951 4.49404 19.444 2.56004 19.4347C2.22004 19.4347 1.88004 19.4147 1.54004 19.3747C3.44004 20.5947 5.70004 21.3047 8.12004 21.3047C16 21.3047 20.33 14.7647 20.33 9.09469C20.33 8.90469 20.33 8.72469 20.32 8.53469C21.16 7.93469 21.88 7.17469 22.46 6.30469Z" fill="#0D6EFD"/>
</svg>
