<svg width="24" height="26" viewBox="0 0 24 26" fill="none" xmlns="http://www.w3.org/2000/svg">
<path d="M19 4.30469C19.5304 4.30469 20.0391 4.5154 20.4142 4.89047C20.7893 5.26555 21 5.77425 21 6.30469V20.3047C21 20.8351 20.7893 21.3438 20.4142 21.7189C20.0391 22.094 19.5304 22.3047 19 22.3047H5C4.46957 22.3047 3.96086 22.094 3.58579 21.7189C3.21071 21.3438 3 20.8351 3 20.3047V6.30469C3 5.77425 3.21071 5.26555 3.58579 4.89047C3.96086 4.5154 4.46957 4.30469 5 4.30469H19ZM18.5 19.8047V14.5047C18.5 13.6401 18.1565 12.8109 17.5452 12.1995C16.9338 11.5882 16.1046 11.2447 15.24 11.2447C14.39 11.2447 13.4 11.7647 12.92 12.5447V11.4347H10.13V19.8047H12.92V14.8747C12.92 14.1047 13.54 13.4747 14.31 13.4747C14.6813 13.4747 15.0374 13.6222 15.2999 13.8847C15.5625 14.1473 15.71 14.5034 15.71 14.8747V19.8047H18.5ZM6.88 9.86469C7.32556 9.86469 7.75288 9.68769 8.06794 9.37263C8.383 9.05757 8.56 8.63025 8.56 8.18469C8.56 7.25469 7.81 6.49469 6.88 6.49469C6.43178 6.49469 6.00193 6.67274 5.68499 6.98968C5.36805 7.30661 5.19 7.73647 5.19 8.18469C5.19 9.11469 5.95 9.86469 6.88 9.86469ZM8.27 19.8047V11.4347H5.5V19.8047H8.27Z" fill="#0D6EFD"/>
</svg>
