<svg width="24" height="25" viewBox="0 0 24 25" fill="none" xmlns="http://www.w3.org/2000/svg">
<path d="M5 3.30469H19C19.5304 3.30469 20.0391 3.5154 20.4142 3.89047C20.7893 4.26555 21 4.77425 21 5.30469V19.3047C21 19.8351 20.7893 20.3438 20.4142 20.7189C20.0391 21.094 19.5304 21.3047 19 21.3047H5C4.46957 21.3047 3.96086 21.094 3.58579 20.7189C3.21071 20.3438 3 19.8351 3 19.3047V5.30469C3 4.77425 3.21071 4.26555 3.58579 3.89047C3.96086 3.5154 4.46957 3.30469 5 3.30469ZM18 5.30469H15.5C14.5717 5.30469 13.6815 5.67344 13.0251 6.32981C12.3687 6.98619 12 7.87643 12 8.80469V11.3047H10V14.3047H12V21.3047H15V14.3047H18V11.3047H15V9.30469C15 9.03947 15.1054 8.78512 15.2929 8.59758C15.4804 8.41004 15.7348 8.30469 16 8.30469H18V5.30469Z" fill="#0D6EFD"/>
</svg>
